# xmcd
#
# Track frame offsets:
#	150
#	12516
#	24971
#	41398
#	54155
#	74258
#	91191
#	105581
#	120166
#	135666
#	152791
#	161838
#	181397
#	202527
#	220863
#	232777
#	245127
#	264595
#	281840
#
# Disc length: 3964 seconds
#
# Revision: 1
# Processed by: cddbd v1.4PL0 Copyright (c) Steve Scherf et al.
# Submitted via: EasyCDDAExtractor 5.1.0
#
DISCID=f50f7a13
DTITLE=compilation disc - Magic On The Waves Of Kineret
DYEAR=1900
DGENRE=Country
TTITLE0=Magic On The Waves Of Kineret
TTITLE1=Kingdom Of Hermon
TTITLE2=A Girl Named Kineret
TTITLE3=Play Me Jordan River
TTITLE4=And Maybe
TTITLE5=Rachel Of The Kineret
TTITLE6=A Diffrent Kineret
TTITLE7=To The North With Love
TTITLE8=Elad
TTITLE9=Fishermans Daughter
TTITLE10=Legend
TTITLE11=I Have A Kineret
TTITLE12=Those Were The Nights
TTITLE13=The Ekaliptos Grove
TTITLE14=A House In Front Of The Golan
TTITLE15=There The Mountins Of Golan
TTITLE16=Come Hebrew Song
TTITLE17=Country, Country, Country
TTITLE18=Sing To Me Kineret
EXTD=
EXTT0=
EXTT1=
EXTT2=
EXTT3=
EXTT4=
EXTT5=
EXTT6=
EXTT7=
EXTT8=
EXTT9=
EXTT10=
EXTT11=
EXTT12=
EXTT13=
EXTT14=
EXTT15=
EXTT16=
EXTT17=
EXTT18=
PLAYORDER=
